<?xml version="1.0" encoding="UTF-8" standalone="no"?><svg xmlns="http://www.w3.org/2000/svg" xmlns:xlink="http://www.w3.org/1999/xlink" style="isolation:isolate" viewBox="0 0 3090.09 2058.559" width="3090.09pt" height="2058.559pt"><defs><clipPath id="_clipPath_bMNLDOznk5M7e1dpWoTNrUtBohAohdVb"><rect width="3090.09" height="2058.559"/></clipPath></defs><g clip-path="url(#_clipPath_bMNLDOznk5M7e1dpWoTNrUtBohAohdVb)"><clipPath id="_clipPath_2fXVtlPJ0nWHiSlcXIWwDGgIw6yqE4uT"><rect x="0" y="0" width="3090.09" height="2058.559" transform="matrix(1,0,0,1,0,0)" fill="rgb(255,255,255)"/></clipPath><g clip-path="url(#_clipPath_2fXVtlPJ0nWHiSlcXIWwDGgIw6yqE4uT)"><g><g><path d=" M 45.045 1918.468 C 45.045 1970.27 86.937 2012.162 138.739 2012.162 L 2948.649 2012.162 C 3000.45 2012.162 3042.342 1970.27 3042.342 1918.468 L 3042.342 138.739 C 3042.342 86.937 3000.45 45.045 2948.649 45.045 L 138.739 45.045 C 86.937 45.045 45.045 86.937 45.045 138.739 L 45.045 1918.468 Z  M 2527.027 1731.081 L 2808.108 1731.081 C 2833.784 1731.081 2854.955 1752.252 2854.955 1777.928 C 2854.955 1803.604 2833.784 1824.775 2808.108 1824.775 L 2527.027 1824.775 C 2501.351 1824.775 2480.18 1803.604 2480.18 1777.928 C 2480.18 1751.802 2501.351 1731.081 2527.027 1731.081 Z  M 1215.766 232.432 C 1190.09 232.432 1168.919 211.261 1168.919 185.586 C 1168.919 159.91 1190.09 138.739 1215.766 138.739 L 1871.171 138.739 C 1896.847 138.739 1918.018 159.91 1918.018 185.586 C 1918.018 211.261 1896.847 232.432 1871.171 232.432 L 1215.766 232.432 Z  M 138.739 326.126 L 2948.649 326.126 L 2948.649 1918.468 L 138.739 1918.468 L 138.739 326.126 Z " fill-rule="evenodd" fill="rgb(183,108,13)"/></g><path d=" M 1497 1297.725 C 1497 1356.366 1478.325 1408.611 1441.347 1454.458 C 1405.117 1497.818 1355.067 1531.581 1291.197 1555.749 C 1227.327 1579.916 1155.613 1592 1075.309 1592 C 1001.728 1592 930.388 1575.651 861.289 1543.309 C 792.19 1510.612 733.922 1465.476 686.486 1407.9 L 785.093 1319.76 C 866.891 1413.587 963.63 1460.855 1074.935 1460.855 C 1123.865 1460.855 1168.686 1455.169 1209.025 1444.151 C 1253.846 1431.357 1288.209 1413.231 1312.861 1389.774 C 1340.874 1364.185 1354.693 1333.62 1354.693 1298.08 C 1354.693 1255.431 1340.874 1223.445 1312.861 1201.765 C 1289.329 1183.284 1254.219 1171.2 1207.904 1165.514 C 1181.012 1162.315 1136.564 1160.538 1074.935 1160.538 C 961.762 1160.538 875.482 1140.991 816.094 1101.541 C 756.706 1062.091 726.826 1004.515 726.826 928.103 C 726.826 879.768 741.766 834.276 771.647 790.562 C 801.527 747.202 842.613 712.728 895.278 686.783 C 949.437 659.417 1009.198 645.912 1074.935 645.912 C 1149.264 645.912 1216.495 656.929 1276.257 678.609 C 1340.5 702.066 1399.888 738.317 1454.794 788.429 L 1368.513 884.744 C 1316.969 845.294 1270.28 817.928 1228.074 802.29 C 1185.868 786.652 1134.697 778.833 1074.935 778.833 C 1040.199 778.833 1008.077 785.586 978.197 799.447 C 948.316 812.952 924.411 831.433 906.483 854.179 C 888.928 876.925 879.964 901.448 879.964 927.037 C 879.964 995.986 947.196 1030.815 1081.285 1030.815 C 1188.482 1030.815 1273.268 1041.122 1335.644 1062.091 C 1394.659 1082.349 1436.865 1112.559 1462.264 1153.786 C 1485.421 1189.326 1497 1237.661 1497 1297.725 Z " fill="rgb(255,255,255)"/><path d=" M 1748.572 814.809 L 1748.572 1093.588 C 1774.029 1078.802 1802.76 1068.704 1834.763 1062.933 C 1858.765 1058.966 1888.223 1056.802 1923.499 1056.802 L 2081.332 1056.802 C 2124.246 1056.802 2157.703 1046.343 2181.706 1025.065 C 2206.072 1003.787 2218.073 972.411 2218.073 930.937 C 2218.073 853.398 2172.614 814.809 2081.332 814.809 L 1748.572 814.809 Z  M 1748.572 1229.191 L 1748.572 1458.922 L 2095.152 1458.922 C 2122.427 1458.922 2148.249 1453.873 2172.978 1444.135 C 2200.254 1434.398 2221.346 1419.972 2236.984 1401.219 C 2255.168 1379.219 2264.26 1353.974 2264.26 1325.483 C 2264.26 1276.435 2244.985 1241.092 2206.436 1219.093 C 2175.887 1201.06 2134.429 1192.044 2082.06 1192.044 L 1924.226 1192.044 C 1852.947 1192.405 1794.759 1204.667 1748.572 1229.191 Z  M 2397 1342.794 C 2397 1399.776 2380.999 1448.463 2348.995 1488.134 C 2320.993 1523.117 2281.716 1549.805 2230.802 1567.476 C 2185.707 1583.705 2135.883 1592 2081.696 1592 L 1615.469 1592 L 1615.469 680.288 L 2081.696 680.288 C 2134.429 680.288 2180.979 690.026 2221.71 709.501 C 2262.441 728.975 2294.081 757.106 2317.356 793.892 C 2341.358 832.12 2352.996 877.561 2352.996 929.494 C 2352.996 969.526 2345.723 1005.23 2331.539 1036.606 C 2317.356 1067.982 2296.99 1092.145 2270.442 1109.456 C 2305.719 1125.685 2334.813 1152.734 2358.087 1190.241 C 2383.908 1233.158 2397 1284.369 2397 1342.794 Z " fill="rgb(255,255,255)"/></g></g></g></svg>