
        <svg xmlns="http://www.w3.org/2000/svg" xmlns:xlink="http://www.w3.org/1999/xlink" version="1.1" width="3170.016909652474" 
        height="606.6600874022145" viewBox="0 0 3170.016909652474 606.6600874022145">
			
			<g transform="scale(8.50084548262372) translate(10, 10)">
				<defs id="SvgjsDefs9483"></defs><g id="SvgjsG9484" featureKey="symbolFeature-0" transform="matrix(0.8153123245720452,0,0,0.8153123245720452,-1.6306246491440903,-11.414372544008632)" fill="#b76c0d"><g xmlns="http://www.w3.org/2000/svg"><path style="" d="M2,74c0,1.656,1.343,3,3,3h90c1.657,0,3-1.344,3-3V17c0-1.656-1.343-3-3-3H5   c-1.657,0-3,1.344-3,3V74L2,74z M81.5,68h9c0.828,0,1.5,0.672,1.5,1.5S91.328,71,90.5,71h-9c-0.828,0-1.5-0.672-1.5-1.5   S80.672,68,81.5,68L81.5,68z M39.5,20c-0.828,0-1.5-0.672-1.5-1.5s0.672-1.5,1.5-1.5h21c0.828,0,1.5,0.672,1.5,1.5   S61.328,20,60.5,20H39.5L39.5,20z M5,23h90v51H5V23z" fill-rule="evenodd" clip-rule="evenodd"></path></g></g><g id="SvgjsG9485" featureKey="nameLeftFeature-0" transform="matrix(0.9970698007056928,0,0,0.9970698007056928,96.00585992314869,0.7471944174572531)" fill="#eeeeee"><path d="M27.6 30.92 q0 2.92 -1.76 5.2 q-1.72 2.16 -4.74 3.36 t-6.82 1.2 q-3.48 0 -6.76 -1.62 t-5.52 -4.5 l3.12 -2.92 q3.88 4.68 9.16 4.68 q2.32 0 4.24 -0.56 q2.12 -0.64 3.28 -1.8 q1.32 -1.28 1.32 -3.04 q0 -2.12 -1.32 -3.2 q-1.12 -0.92 -3.32 -1.2 q-1.28 -0.16 -4.2 -0.16 q-5.36 0 -8.18 -1.96 t-2.82 -5.76 q0 -2.4 1.42 -4.56 t3.9 -3.44 q2.56 -1.36 5.68 -1.36 q3.52 0 6.36 1.08 q3.04 1.16 5.64 3.64 l-2.72 3.2 q-2.44 -1.96 -4.44 -2.74 t-4.84 -0.78 q-1.64 0 -3.06 0.68 t-2.26 1.82 t-0.84 2.42 q0 3.44 6.36 3.44 q5.08 0 8.04 1.04 q2.8 1 4 3.04 q1.08 1.8 1.08 4.8 z M55.724000000000004 40 l-20.92 0 l0 -29.84 l4.36 0 l0 25.48 l16.56 0 l0 4.36 z"></path></g><g id="SvgjsG9486" featureKey="inlineSymbolFeature-0" transform="matrix(0.39134991579458167,0,0,0.39134991579458167,153.0865008420542,6.086500842054184)" fill="#b76c0d"><path xmlns="http://www.w3.org/2000/svg" d="M50,10L10,90h80L50,10z M50,24.909L72.546,70H42.36l3.333-6.667h16.064L50,39.814L31.575,76.667h44.304l3.333,6.666H20.788  L50,24.909z"></path></g><g id="SvgjsG9487" featureKey="nameRightFeature-0" transform="matrix(0.9970698007056928,0,0,0.9970698007056928,191.80351642932914,0.7471896630579504)" fill="#eeeeee"><path d="M26.6 14.559999999999999 l-10.52 0 l0 25.44 l-4.24 0 l0 -25.44 l-10.64 0 l0 -4.4 l25.4 0 l0 4.4 z M37.364 28.04 l0 7.6 l18.4 0 l0 4.36 l-22.76 0 l0 -29.84 l21 0 l0 4.4 l-16.64 0 l0 9.04 q1.24 -0.72 2.76 -0.96 q1.12 -0.2 2.88 -0.2 l6.52 0 l0 4.44 l-6.52 0 q-1.64 0 -2.88 0.2 q-1.52 0.28 -2.76 0.96 z M67.888 14.559999999999999 l0 9.12 q1.24 -0.72 2.8 -1 q1.16 -0.2 2.88 -0.2 l5.12 0 q2.08 0 3.26 -1.04 t1.18 -3.08 q0 -3.8 -4.44 -3.8 l-10.8 0 z M67.888 28.119999999999997 l0 7.52 l11.24 0 q1.32 0 2.52 -0.48 q1.32 -0.48 2.08 -1.4 q0.88 -1.08 0.88 -2.48 q0 -2.4 -1.88 -3.48 q-1.48 -0.88 -4.04 -0.88 l-5.12 0 q-3.44 0 -5.68 1.2 z M88.928 31.84 q0 2.8 -1.56 4.76 q-1.36 1.72 -3.84 2.6 q-2.2 0.8 -4.84 0.8 l-15.12 0 l0 -29.84 l15.12 0 q2.56 0 4.54 0.96 t3.1 2.76 q1.16 1.88 1.16 4.44 q0 1.96 -0.7 3.5 t-1.98 2.38 q1.72 0.8 2.84 2.64 q1.28 2.12 1.28 5 z M122.73200000000001 24.880000000000003 q0 -3.2 -1.64 -5.8 q-1.56 -2.52 -4.26 -3.96 t-5.86 -1.44 q-3.28 0 -5.98 1.48 t-4.22 4.04 q-1.56 2.68 -1.56 5.96 q0 3.12 1.68 5.76 q1.6 2.48 4.3 3.94 t5.84 1.46 t5.84 -1.52 t4.26 -4.08 q1.6 -2.68 1.6 -5.84 z M127.05200000000002 25.119999999999997 q0 4.32 -2.24 7.96 q-2.16 3.48 -5.86 5.54 t-7.98 2.06 q-4.44 0 -8.16 -2.16 q-3.64 -2.08 -5.72 -5.72 q-2.16 -3.72 -2.16 -8.16 q0 -4.28 2.28 -7.88 q2.16 -3.44 5.86 -5.46 t7.94 -2.02 q4.36 0 8.08 2.12 q3.64 2.08 5.76 5.64 q2.2 3.72 2.2 8.08 z M161.57600000000002 40 l-5.52 0 l-9.16 -12.56 l-9.48 12.56 l-5.56 0 l12.24 -16.2 l-9.84 -13.64 l5.28 0 l7.36 9.96 l7.48 -9.96 l5.4 0 l-10.12 13.64 z"></path></g>
			</g>
		</svg>
	